<svg fill="#121212" xmlns="http://www.w3.org/2000/svg" xmlns:xlink="http://www.w3.org/1999/xlink" version="1.0" x="0px" y="0px" viewBox="0 0 100 100" enable-background="new 0 0 100 100" xml:space="preserve"><path d="M64.125,55.125c0-1.242,1.007-2.25,2.25-2.25h7.875c1.243,0,2.25,1.008,2.25,2.25V74.25c0,1.243-1.007,2.25-2.25,2.25  h-7.875c-1.243,0-2.25-1.007-2.25-2.25V55.125L64.125,55.125z M22.5,40.5c0-1.242,1.007-2.25,2.25-2.25h7.875  c1.243,0,2.25,1.008,2.25,2.25v33.75c0,1.242-1.007,2.25-2.25,2.25H24.75c-1.243,0-2.25-1.008-2.25-2.25V40.5L22.5,40.5z   M42.975,24.75c0-1.242,1.007-2.25,2.25-2.25h7.875c1.242,0,2.25,1.008,2.25,2.25v49.5c0,1.243-1.008,2.25-2.25,2.25h-7.875  c-1.243,0-2.25-1.007-2.25-2.25V24.75L42.975,24.75z"/></svg>